Patient4_TMGait_0pt8_01_right_35_EMG.mot
version=1
nRows=23
nColumns=33
inDegrees=no
endheader
time	1LAddLong	2LGlutMax	3LGlutMed	4LIliopsoas	5LSemiMemb	6LBicFemLong	7LRecFem	8LVastMed	9LVastLat	10LGasMed	11LTibAnt	12lTibPost	13LPeroneusLong	14LSol	15LExtDigLong	16LFlexDigLong	17RAddLong	18RGlutMax	19RGlutMed	20RIliopsoas	21RSemiMemb	22RBicFemLong	23RRecFem	24RVastMed	25RVastLat	26RGasMed	27RTibAnt	28RTibPost	29RPeroneusLong	30RSol	31RExtDigLong	32RFlexDigLong
39.985	-0.011444	0.21545	-0.022125	0.005341	0.026398	-0.26321	0.047302	0.010529	-0.086975	0.041199	0.029602	-0.001068	0.045319	-0.037384	0.023041	-0.011292	0.001831	0.29007	0.1857	-0.087738	0.62286	0.13855	-0.077667	-0.10834	-0.004272	-0.020752	0.11505	0.39429	-0.046844	-0.2713	0	-0.01236
39.986	-0.014343	0.22873	-0.009613	0	0.009155	-0.4689	0.10605	0.002594	-0.080414	0.040741	0.051422	-0.00061	0.031128	0.011292	0.097046	0.002289	-0.028076	0.26581	-0.7962	-0.040436	0.33096	0.2388	-0.13748	-0.052643	0.026398	0.010529	0.1886	0.38101	0.095215	0.19134	-0.000763	-0.021973
39.987	-0.01236	0.20676	-0.005493	-0.005646	0.019531	-0.55206	0.12161	-0.001678	-0.075836	0.042114	0.10468	-0.010529	0.014801	0.018921	0.1535	-0.010223	0.007019	0.26642	-0.71335	-0.019684	0.30609	0.30502	-0.080261	0.025787	0.019531	0.027008	0.13748	0.16693	0.17883	0.81451	0.001221	-0.009613
39.988	-0.017853	0.21057	0.00946	-0.011139	0.046844	-0.50232	0.087433	0.022278	-0.020447	0.040131	0.085144	0.004883	0.029602	0.00473	0.13001	0	0.009918	0.23453	-0.28519	0.13412	0.33783	0.20859	-0.12421	0.062103	0.04837	0.029144	0.093994	0.032043	0.25406	1.217	-0.002289	-0.00351
39.989	0.010834	0.23697	0.003357	-0.009918	0.049438	-0.28503	0.03067	-0.00473	0.058289	0.022888	0.13199	0.00061	0.011749	0.018616	0.17883	-0.002136	0.026245	0.30502	-0.28137	0.21393	0.22705	0.13031	-0.13184	0.032196	0.022888	0.014191	0.017242	-0.11337	0.2002	0.56061	-0.005188	-0.00946
39.99	0.033112	0.22568	0.017548	-0.001373	0.071564	-0.086212	-0.014954	-0.014496	0.11841	0.00824	0.040436	-0.001373	0.009918	0.064697	0.10986	-0.00351	0.04425	0.29984	-0.27985	0.12558	0.3038	0.14954	-0.093079	-0.03891	0.033569	-0.00061	-0.3479	-0.089874	0.10819	-0.006104	0.002899	-0.012207
39.991	0.016327	0.23895	0.017853	0.011444	-0.00412	0.093689	0.009918	-0.031738	0.15259	0.016479	0.10757	0.007324	-0.00885	0.082092	0.23285	0.005646	0.049591	0.28183	0.10773	0.054016	0.3714	0.072174	-0.10361	-0.011139	0.031281	-0.016479	-0.62805	-0.021057	0.045624	-0.28076	-0.001221	-0.019684
39.992	0.006409	0.28091	0.011292	0.014343	-0.004272	0.25711	0.031128	-0.027924	0.13763	0.015717	-0.16525	-0.005035	0.051117	0.09079	0.37705	0.000916	0.080109	0.17136	-0.27237	0.12192	0.33905	-0.10147	-0.10147	-0.088348	0.006561	-0.01297	-0.98496	-0.077362	0.11231	-0.37964	0.003967	-0.018158
39.993	-0.014191	0.25146	0.011749	0.029907	0.009918	0.41489	0.097198	-0.02182	-0.00061	-0.019836	-0.43793	0.003052	0.11414	0.053711	-0.14923	0.003662	0.06958	0.12802	-0.21088	0.069275	0.15778	-0.22293	-0.084534	-0.008087	-0.007935	-0.011139	-0.15549	-0.15732	0.22018	-0.45929	-0.002441	-0.01236
39.994	-0.043793	0.25146	0.040283	0.01709	0.018311	0.41824	0.15472	-0.016479	-0.17181	-0.018921	-0.20248	0.006256	0.099182	0.054626	-0.009766	0.007935	0.059814	0.092621	-0.25742	0.010834	0.43015	-0.39154	-0.14969	0.005951	-0.042419	-0.000458	0.59845	-0.1088	0.31982	-0.49667	-0.003662	-0.014038
39.995	-0.056763	0.26108	0.10391	-0.001068	-0.04715	0.47104	0.099335	-0.010529	-0.21759	-0.011902	-0.052948	0.002747	0.103	0.084076	-0.448	0.008087	0.077667	0.083466	0.076141	-0.07309	0.56198	-0.53741	-0.12955	-0.032196	-0.031433	0.004578	0.54962	0.093384	-0.11047	-0.5098	0.00061	-0.017242
39.996	-0.063324	0.30975	0.15243	-0.000763	-0.089417	0.16602	0.005341	-0.011444	-0.168	-0.009613	0.034637	0.003052	0.084991	0.050201	-0.1564	0.010223	0.081635	0.038757	0.1329	-0.16174	0.26352	-0.55161	-0.12329	-0.016022	-0.032654	0.011597	0.37323	0.008392	-0.18417	-0.52216	-0.003662	-0.015869
39.997	-0.048676	0.3244	0.20111	0.018768	-0.10315	-0.23499	-0.079346	-0.012817	-0.13184	-0.022888	0.044556	0.010529	0.1088	-0.002747	-0.048981	0.002747	0.040283	0.047913	-0.00473	-0.1828	0.14465	-0.52216	-0.23361	0.004883	-0.002136	0.026093	-0.1416	-0.019989	0.023651	-0.30975	-0.003204	-0.014648
39.998	-0.019073	0.29923	0.20767	0.016479	-0.054321	-0.50369	-0.14297	-0.005493	-0.079498	-0.036316	0.079041	0.012665	0.18341	0.003815	-0.31891	-0.001526	-0.016327	0.013428	-0.068359	-0.215	0.15137	-0.34149	-0.28839	0.047455	0.058746	0.026703	-0.27817	-0.025177	0.20859	-0.11185	-0.00412	-0.018616
39.999	0.019226	0.25818	0.19318	0.005951	0.12238	-0.62653	-0.12253	0.006866	-0.007935	-0.007172	0.035248	0.018311	0.15457	-0.002441	-0.41855	0.00061	-0.020752	-0.02655	-0.2298	-0.12436	-0.090332	-0.06012	-0.12848	0.016327	0.06424	0.0177	-0.33905	-0.035858	0.25528	0.20477	-0.000153	-0.020142
40	0.019073	0.21591	0.19791	0.003052	0.15778	-0.5397	-0.1059	0.0354	0.090332	0.019684	0.011444	0.003815	0.13596	-0.002289	-0.27222	-0.003967	-0.022125	0.053864	-0.18433	-0.005493	-0.18127	0.30579	-0.066833	-0.038452	0.042114	0.00824	-0.30762	-0.043488	0.21027	0.5545	-0.002289	-0.011597
40.001	0.015717	0.11505	0.21606	0.00885	0.085907	-0.35187	-0.057373	0.034943	0.24307	0.009766	-0.016785	0.01709	0.159	0.023499	-0.17716	0.012817	-0.016937	0.034027	-0.19562	0.092773	0.33081	0.29205	-0.05188	0.037231	0.064087	0.027771	-0.25955	-0.11307	0.29755	0.45151	-0.003357	-0.012512
40.002	0.005341	0.015869	0.18478	0	0.025177	-0.22522	-0.023499	0.025024	0.15701	0.006104	-0.008545	0.019684	-0.13901	-0.020142	-0.083008	0.022888	-0.015869	0.046387	-0.18219	0.14114	0.48889	0.23758	-0.11429	0.020447	0.030518	0.017242	-0.071716	-0.037231	0.19852	0.084839	-0.002441	-0.016479
40.003	-0.003204	-0.10361	0.14282	0.011444	0.005341	-0.19669	-0.10132	0.021362	0.17761	-0.006714	-0.023956	0.015869	-0.028534	-0.037842	0.017548	0.023499	-0.037079	0.10117	-0.12863	0.13977	0.082703	0.065155	-0.16007	0.014343	0.025787	0.001526	-0.24033	-0.05249	0.16632	-0.099335	0.002747	-0.016937
40.004	0.000153	-0.30533	0.10757	0.008698	0.007172	-0.36621	-0.13016	0.003204	0.23926	0.018005	-0.026703	0.031433	0.046082	-0.091095	0.047302	0.020752	-0.068665	0.10315	-0.055084	0.088348	0.10452	-0.061798	-0.1265	0.074768	0.027313	-0.001221	-0.10071	-0.041809	0.11108	-0.25253	-0.003052	-0.018616
40.005	0.010223	-0.46478	0.068817	0.014648	-0.007477	-0.34378	-0.085602	-0.01709	0.21866	0.011597	-0.033417	0.023041	0.19363	-0.088806	0.11765	0.015411	-0.011597	0.081635	-0.15961	0.036163	0.22903	-0.017853	-0.13412	0.058594	0.026245	-0.02533	0.1033	-0.021667	0.023041	-0.21835	-0.001831	-0.018005
40.006	0.011292	-0.6369	0.10452	0.01358	-0.013733	-0.35187	-0.049744	-0.019684	0.23499	-0.014954	-0.03006	0.033264	-0.12573	-0.058136	0.15854	0.012817	0.003967	0.14069	-0.15656	-0.001373	0.36758	-0.075073	-0.082855	0.075226	0.023651	-0.026703	0.54901	-0.009613	-0.36652	0.57754	-0.001526	-0.021057
40.007	0.01358	-0.7309	0.089874	-0.011597	-0.032654	-0.10605	-0.041504	-0.007324	0.23789	-0.006256	-0.011749	0.031738	0.039063	-0.019379	0.13916	0.01358	0.01709	0.17914	-0.12711	0.008087	0.34561	-0.19165	-0.083466	0.067139	0.031281	-0.021667	0.92941	-0.003357	-0.3215	0.58823	-0.001221	-0.010223
